PathFileType        4      (X/Y/Z)      /Users/FranklinZhao/OpenSimProject/Simulation/Models/Rajapogal_2015/marker_data/trc/transformed_SN001_0010_10m_01.trc         
DataRate	CameraRate	NumFrames	NumMarkers	Units	OrigDataRate	OrigDataStartFrame	OrigNumFrames
200.0	200.0	4	72	mm	200.0	161	641
Frame#	Time	LPSIS			RPSIS			LICR			RICR			LASIS			RASIS			STER			XPRO			C7			T4			T8			T10			RUA1			RUA2			RUA3			RUA4			RHLE			RHME			RTEMP			RHEAD			LHEAD			LTEMP			RACR			LACR			LUA1			LUA2			LUA3			LUA4			LHLE			LHME			LFA1			LFA2			LFA3			LRSP			LUSP			RFA1			RFA2			RFA3			RRSP			RUSP			LTH1			LTH2			LTH3			LTH4			LFLE			LFME			LSK1			LSK2			LSK3			LSK4			LTAM			LFAL			LFCC			LFMT1			LFMT2			LFMT5			RTH1			RTH2			RTH3			RTH4			RFLE			RFME			RSK1			RSK2			RSK3			RSK4			RFAL			RTAM			RFCC			RFMT1			RFMT2			RFMT5			
		X1	Y1	Z1	X2	Y2	Z2	X3	Y3	Z3	X4	Y4	Z4	X5	Y5	Z5	X6	Y6	Z6	X7	Y7	Z7	X8	Y8	Z8	X9	Y9	Z9	X10	Y10	Z10	X11	Y11	Z11	X12	Y12	Z12	X13	Y13	Z13	X14	Y14	Z14	X15	Y15	Z15	X16	Y16	Z16	X17	Y17	Z17	X18	Y18	Z18	X19	Y19	Z19	X20	Y20	Z20	X21	Y21	Z21	X22	Y22	Z22	X23	Y23	Z23	X24	Y24	Z24	X25	Y25	Z25	X26	Y26	Z26	X27	Y27	Z27	X28	Y28	Z28	X29	Y29	Z29	X30	Y30	Z30	X31	Y31	Z31	X32	Y32	Z32	X33	Y33	Z33	X34	Y34	Z34	X35	Y35	Z35	X36	Y36	Z36	X37	Y37	Z37	X38	Y38	Z38	X39	Y39	Z39	X40	Y40	Z40	X41	Y41	Z41	X42	Y42	Z42	X43	Y43	Z43	X44	Y44	Z44	X45	Y45	Z45	X46	Y46	Z46	X47	Y47	Z47	X48	Y48	Z48	X49	Y49	Z49	X50	Y50	Z50	X51	Y51	Z51	X52	Y52	Z52	X53	Y53	Z53	X54	Y54	Z54	X55	Y55	Z55	X56	Y56	Z56	X57	Y57	Z57	X58	Y58	Z58	X59	Y59	Z59	X60	Y60	Z60	X61	Y61	Z61	X62	Y62	Z62	X63	Y63	Z63	X64	Y64	Z64	X65	Y65	Z65	X66	Y66	Z66	X67	Y67	Z67	X68	Y68	Z68	X69	Y69	Z69	X70	Y70	Z70	X71	Y71	Z71	X72	Y72	Z72	
161	0.8	-841.4002685546875	1027.288696289062	-292.0708312988283	-842.3663940429688	1026.61572265625	-212.8471679687502	-814.3960571289062	1088.484497070312	-380.3415222167971	-811.3263549804688	1105.463012695312	-118.7160568237307	-647.6994018554688	1004.3247680664059	-372.2195129394533	-654.1011352539062	1001.242065429688	-116.95185089111348	-679.290283203125	1471.700927734375	-263.4277648925784	-614.8853759765625	1266.4541015625	-257.74942016601585	-811.9495849609375	1573.010498046875	-261.8850708007815	-865.5248413085938	1462.061157226562	-265.5303955078128	-866.7914428710938	1328.499389648438	-258.4261474609377	-861.8695068359375	1283.568237304688	-261.34573364257835	-813.6790161132812	1362.062866210938	-14.3812398910525	-738.9389038085938	1352.835205078125	-20.86376953125025	-734.6294555664062	1279.865844726562	-7.912516117096183	-809.0433349609375	1277.259155273438	0.042074542492393466	-781.0791625976562	1187.7939453125	2.2608695030210217	-800.4902954101562	1179.304321289062	-75.16098785400412	-650.369140625	1730.6328125	-189.74430847168	-606.741455078125	1739.73583984375	-225.35958862304722	-608.8453369140625	1734.665893554688	-307.4235534667972	-657.029541015625	1717.7998046875	-345.3551940917972	-770.4815673828125	1527.593872070312	-79.48558807373075	-769.68701171875	1519.207397460938	-451.8964843750003	-734.08251953125	1358.424560546875	-495.9702758789064	-806.7974853515625	1341.54052734375	-507.5231933593752	-798.4575805664062	1255.990234375	-519.5110473632815	-726.7462158203125	1271.850830078125	-507.27066040039085	-764.582763671875	1185.609252929688	-516.0352783203127	-801.1362915039062	1172.622192382812	-450.6751098632814	-640.287841796875	984.3530273437499	-482.48034667968767	-640.7899169921875	989.5179443359374	-528.8877563476565	-650.2030639648438	955.8915405273436	-499.69149780273455	-672.9112548828125	917.0281982421874	-469.29370117187517	-686.4274291992188	917.7018432617186	-539.4550170898439	-676.2881469726562	1021.903930664062	49.442687988281065	-654.4443359375	1017.548889160156	9.160628318786435	-664.4597778320312	987.2538452148438	23.071136474609197	-656.7744750976562	932.2156982421875	-2.8948917388917734	-696.7183837890625	936.9113159179688	50.45336532592756	-685.3008422851562	718.1080932617186	-415.2552185058595	-735.2929077148438	717.5564575195311	-412.0303955078126	-741.2133178710938	612.2640991210936	-389.0049438476563	-676.6004638671875	617.4967651367186	-397.9480590820313	-713.902099609375	524.4853515624999	-372.8038330078126	-719.689453125	514.483154296875	-252.56338500976568	-736.7661743164062	344.07583618164057	-390.46481323242193	-797.694580078125	349.51284790039057	-380.78134155273443	-805.161376953125	264.2343444824218	-363.9277648925782	-741.5585327148438	262.61453247070307	-376.13250732421886	-741.410400390625	97.33061981201168	-257.1131896972656	-789.1508178710938	80.80551910400385	-324.9211730957031	-816.1220703125	46.75146484374995	-268.1099548339844	-606.4058227539062	38.20653533935541	-291.0753479003906	-612.3017578125	37.962615966796825	-327.1269226074219	-662.970458984375	27.901863098144464	-371.2070922851562	-678.7074584960938	739.9231567382812	-81.44384765625014	-620.2245483398438	737.3659057617188	-70.00164031982436	-592.5214233398438	655.274658203125	-76.52182769775402	-653.5517578125	642.1285400390625	-93.66211700439464	-603.8340454101562	544.6583251953125	-99.06272888183604	-576.1883544921875	521.6297607421875	-217.1539916992189	-729.2169799804688	440.6883544921875	-95.70953369140634	-676.8496704101562	416.107177734375	-83.15370178222663	-744.68603515625	333.4601745605469	-104.39055633544926	-786.8548583984375	382.2584228515625	-110.15983581542977	-915.494384765625	232.48333740234378	-156.18023681640625	-862.96044921875	213.84899902343747	-223.99096679687503	-952.1399536132812	229.46310424804688	-213.37884521484384	-831.6596069335938	86.07064056396482	-172.10301208496094	-832.4605102539062	86.49016571044919	-141.95779418945312	-867.9218139648438	108.93702697753909	-104.70310211181642	
162	0.805	-833.3756713867188	1027.441528320312	-292.4967346191408	-834.2415771484375	1026.724243164062	-213.0922088623049	-806.2406005859375	1088.826293945312	-381.12063598632835	-803.3223876953125	1105.948120117188	-119.2700042724611	-639.8541259765625	1004.2765502929689	-372.760192871094	-645.9456787109375	1001.847473144531	-117.79897308349628	-671.0205688476562	1471.935668945312	-263.5107727050784	-606.71484375	1266.755004882812	-258.0635986328127	-803.499267578125	1573.234741210938	-261.99093627929716	-857.216064453125	1461.906372070312	-266.1116027832034	-858.5238037109375	1328.75390625	-259.04226684570335	-853.62060546875	1283.942993164062	-262.1114196777346	-806.7166137695312	1361.978637695312	-14.78292274475123	-732.010498046875	1352.291381835938	-21.26397323608423	-728.413818359375	1279.244506835938	-8.607989311218496	-802.7496337890625	1277.180053710938	-0.6183586716654262	-775.2335205078125	1187.642211914062	1.3146755695340837	-794.5958862304688	1179.243408203125	-76.16490173339865	-641.7733154296875	1730.736206054688	-189.51901245117222	-598.230712890625	1739.750244140625	-225.1292877197269	-600.1591186523438	1734.954345703125	-307.0594177246097	-648.4093627929688	1717.860107421875	-345.18750000000034	-762.4189453125	1527.250732421875	-79.55166625976591	-760.8904418945312	1520.03759765625	-451.9056396484378	-723.8274536132812	1359.830932617188	-496.6470336914064	-796.3477172851562	1342.126831054688	-508.37811279296903	-786.9596557617188	1256.755249023438	-520.6777343750002	-715.49609375	1273.44970703125	-508.04437255859403	-752.5545043945312	1186.822265625	-517.4422607421877	-788.9359130859375	1173.089965820312	-452.2398681640627	-624.1307373046875	987.9027709960936	-482.8424377441408	-624.73486328125	992.9407958984374	-529.5540771484377	-633.364013671875	959.1602783203124	-500.08648681640636	-655.621337890625	919.9713134765624	-470.233581542969	-668.6968994140625	920.4134521484374	-540.3499755859376	-672.87451171875	1020.224792480469	48.3835144042967	-651.1817626953125	1015.644409179688	8.177551269531063	-661.555419921875	985.3421020507812	22.1062698364256	-654.8374633789062	930.1226196289062	-3.869497299194507	-694.4970703125	935.5096435546875	49.55252838134749	-680.2567138671875	717.6921386718749	-415.736785888672	-730.7199096679688	717.9877929687499	-411.8318481445313	-737.8857421875	612.6481933593749	-388.8115844726563	-673.3067626953125	617.0300292968749	-397.6490173339845	-712.1536865234375	524.4362182617186	-372.5972595214845	-718.0015869140625	514.6131591796875	-252.0678100585939	-736.04345703125	344.34478759765614	-390.10076904296886	-796.9525756835938	349.81021118164057	-380.21136474609386	-804.0399169921875	264.21963500976557	-362.6518859863282	-740.8721923828125	262.59976196289057	-375.67028808593756	-740.7704467773438	97.42260742187496	-256.9661254882812	-789.3204956054688	81.60817718505854	-325.0066833496094	-815.7890625	47.07884979248042	-267.3076782226562	-606.113037109375	38.06310653686517	-291.2893981933594	-612.1876220703125	37.845596313476506	-327.1823120117188	-662.881103515625	27.927036285400323	-371.1871337890625	-667.871337890625	741.2520141601562	-81.38240814208999	-608.8477172851562	739.5252075195312	-70.40408325195327	-579.884033203125	657.7876586914062	-76.88873291015638	-640.8355712890625	643.5664672851562	-93.6848831176759	-590.0005493164062	546.75927734375	-99.61294555664072	-561.9207153320312	524.4553833007812	-217.47106933593759	-713.1593017578125	439.7760620117188	-95.96503448486337	-660.33544921875	416.5242919921875	-83.9175109863282	-726.18017578125	332.4198303222656	-105.02893829345706	-769.1605224609375	380.0458374023438	-110.72118377685557	-894.615478515625	227.17964172363278	-156.46644592285162	-841.7760620117188	210.28474426269528	-224.76589965820312	-931.4193115234375	222.75936889648438	-213.79716491699222	-805.441162109375	84.19696044921872	-172.91178894042972	-806.2592163085938	84.52867126464841	-142.67875671386722	-842.3981323242188	105.74076080322268	-105.47210693359382	
163	0.81	-825.3185424804688	1027.489379882812	-292.87927246093767	-826.2305908203125	1026.947143554688	-213.4673461914064	-798.1428833007812	1088.743408203125	-381.5889282226564	-795.250244140625	1106.568359375	-119.8245849609377	-631.9292602539062	1004.0201416015619	-373.69421386718767	-637.7037353515625	1002.503295898438	-118.52761840820328	-662.8135375976562	1472.064453125	-263.4400634765628	-598.4595336914062	1266.915771484375	-258.3342895507814	-795.072509765625	1573.381713867188	-262.0436096191409	-848.9086303710938	1462.389770507812	-266.5559387207034	-850.2688598632812	1328.962768554688	-259.8344726562502	-845.3280029296875	1284.01806640625	-262.7610778808596	-799.7620239257812	1361.850463867188	-15.30933952331568	-725.09326171875	1351.559204101562	-21.557220458984627	-722.0025634765625	1278.623046875	-9.118241310119863	-796.3636474609375	1276.955200195312	-1.4421485662462674	-769.6509399414062	1187.255126953125	0.3469268381593431	-788.9597778320312	1179.411254882812	-77.10835266113303	-633.233154296875	1730.746704101562	-189.2046203613284	-589.4546508789062	1739.64306640625	-224.76792907714872	-591.4183959960938	1734.866821289062	-306.64321899414097	-639.7496948242188	1718.10009765625	-344.72961425781284	-754.376953125	1526.990356445312	-79.54380035400419	-752.0487670898438	1520.818237304688	-451.87557983398466	-713.5881958007812	1361.181274414062	-497.1264648437502	-785.7899169921875	1342.732421875	-509.2893066406252	-775.3843994140625	1257.490844726562	-521.9919433593752	-704.2010498046875	1274.830322265625	-508.89407348632835	-740.0732421875	1187.823120117188	-518.9991455078127	-776.6265869140625	1173.265747070312	-453.8331298828127	-608.1952514648438	991.3214111328124	-483.63073730468767	-608.7354736328125	996.5218505859374	-530.3009033203127	-616.8515014648438	962.5176391601561	-500.74365234375017	-638.3397216796875	922.8353881835936	-470.93115234375017	-651.1690063476562	922.9913940429686	-541.2638549804689	-669.2327880859375	1018.603942871094	47.55979156494123	-647.6343383789062	1013.488159179688	7.290880680084043	-658.6123046875	983.5070190429688	21.12408256530744	-652.7904663085938	928.0879516601562	-4.740785121917895	-692.3612060546875	934.1610717773438	48.86642837524397	-675.5989990234375	717.4444580078124	-415.6724243164063	-726.077880859375	718.3250732421874	-411.40713500976574	-734.5534057617188	613.0898437499999	-388.54653930664074	-670.0523681640625	616.4833374023436	-397.1799316406251	-710.3016357421875	524.4787597656249	-372.3442382812501	-715.8600463867188	514.7235717773438	-251.6980743408204	-735.1062622070312	344.64520263671875	-389.7655334472657	-795.9320678710938	350.31423950195307	-379.5787658691407	-803.3727416992188	264.7084655761718	-361.6144104003907	-740.2489624023438	263.23403930664057	-375.28131103515625	-740.0755615234375	97.95673370361324	-256.41552734375	-789.019287109375	81.9024047851562	-324.5979614257812	-815.3180541992188	47.56172943115229	-266.6468505859375	-605.8060302734375	38.01195907592767	-291.4537048339844	-611.9518432617188	37.733772277831974	-327.2416381835938	-662.8259887695312	27.83136177062981	-371.1170959472656	-656.5992431640625	742.3295288085938	-81.2723541259767	-597.3604736328125	741.5534057617188	-70.69200897216811	-567.3828125	660.1710205078125	-77.18654632568372	-628.2205810546875	645.0750122070312	-93.67472076416027	-576.2942504882812	548.7373657226562	-100.1312179565431	-547.883056640625	526.9854125976562	-217.88305664062509	-697.1566772460938	438.9160766601562	-96.35111236572274	-643.7634887695312	416.73876953125	-84.43188476562507	-707.6674194335938	331.073974609375	-105.79781341552736	-751.747314453125	377.7572326660156	-111.05151367187507	-873.5284423828125	221.76684570312497	-156.90419006347662	-820.38525390625	206.57398986816406	-225.53260803222662	-910.5294189453125	216.15127563476557	-214.22935485839844	-779.3886108398438	82.13110351562497	-173.52146911621094	-779.9275512695312	82.51144409179685	-143.35583496093753	-816.7666015625	102.20423889160159	-106.20166778564452	
164	0.8150000000000001	-817.2603149414062	1027.6884765625	-293.11187744140636	-818.6017456054688	1027.265625	-213.3745574951174	-790.2945556640625	1088.909912109375	-382.7301025390627	-787.203369140625	1106.700927734375	-120.3309707641604	-623.586181640625	1003.8067626953119	-374.52099609375017	-629.6511840820312	1002.830322265625	-119.49006652832048	-654.4215698242188	1472.08935546875	-263.50424194335966	-590.2538452148438	1266.994995117188	-258.6654968261721	-786.7337646484375	1573.394165039062	-262.1187744140628	-840.4793701171875	1462.420776367188	-267.08322143554716	-841.9425659179688	1329.104858398438	-260.5181274414064	-836.9584350585938	1284.197021484375	-263.5053710937502	-792.801025390625	1361.56005859375	-15.858104705810801	-718.2217407226562	1350.879028320312	-21.965175628662358	-715.6435546875	1277.694946289062	-9.696843147278067	-790.0603637695312	1276.658813476562	-2.2575392723085845	-763.7816162109375	1186.651733398438	-0.6066018939020429	-783.1959228515625	1179.153930664062	-78.01318359375021	-624.7037963867188	1730.593139648438	-188.78964233398472	-580.8790893554688	1739.485473632812	-224.3303375244144	-582.8096923828125	1734.81591796875	-306.3149108886722	-631.045166015625	1718.104736328125	-344.4120788574222	-746.257568359375	1526.659790039062	-79.6118927001956	-743.1405639648438	1521.329223632812	-451.9022521972659	-703.243896484375	1362.352294921875	-497.4760742187502	-775.237548828125	1343.222412109375	-510.22259521484403	-763.7962646484375	1258.300415039062	-523.2895507812502	-692.9874267578125	1276.187622070312	-509.7704772949221	-727.6617431640625	1188.5732421875	-520.4342041015627	-763.6986083984375	1173.548828125	-455.3281250000002	-592.5581665039062	994.7965087890624	-484.64385986328136	-592.854736328125	999.9426269531249	-531.105895996094	-600.314453125	965.8542480468749	-501.55404663085955	-621.0989990234375	925.6513061523436	-471.71655273437517	-633.7568359375	925.5523071289061	-542.0578613281251	-665.63427734375	1016.618774414062	46.620510101318175	-644.2230834960938	1011.311218261719	6.199706077575498	-655.5576171875	981.5440673828125	20.42177391052228	-650.74853515625	926.0349731445312	-5.679614067077807	-690.1009521484375	932.7662963867188	48.01226043701155	-670.8969116210938	717.1219482421874	-415.78665161132824	-721.5534057617188	718.4798583984374	-411.4274291992189	-731.36962890625	613.4012451171874	-388.1272888183595	-666.742431640625	616.0760498046874	-396.8463745117189	-708.353271484375	524.5966796874999	-372.1927490234376	-713.5328979492188	514.8482055664062	-251.4376068115235	-734.1412353515625	345.05041503906244	-389.5154113769532	-794.8885498046875	350.9916687011718	-378.93853759765625	-802.7001342773438	265.21035766601557	-360.9662170410157	-739.4619140625	263.54846191406244	-374.82601928710943	-738.798583984375	97.91888427734371	-257.0162048339844	-788.2512817382812	82.18891143798822	-323.2281799316406	-814.9267578125	47.96677017211909	-265.9043579101562	-605.5255737304688	37.95551681518549	-291.5985107421875	-611.6797485351562	37.58567810058588	-327.3514404296875	-662.767578125	27.771234512329034	-371.0516357421875	-645.9283447265625	743.1959838867188	-81.75585937500014	-586.0330200195312	743.3507690429688	-71.05503845214858	-554.97998046875	662.3523559570312	-77.65357971191419	-615.701171875	646.5565795898438	-93.67053985595714	-562.816650390625	550.7735595703125	-100.4676589965821	-534.095947265625	529.9815673828125	-218.4801635742189	-681.250732421875	437.7632141113281	-96.55699157714852	-627.4024047851562	417.1163024902344	-84.91122436523445	-688.9535522460938	329.7510070800781	-106.50411224365236	-734.2835693359375	375.3106994628906	-111.41355895996097	-852.045166015625	216.12496948242188	-157.22145080566412	-798.8135375976562	202.56349182128906	-226.11497497558594	-889.155029296875	209.39578247070307	-214.54364013671884	-753.2063598632812	79.93853759765622	-174.50001525878912	-753.6181030273438	80.42366027832028	-144.20809936523443	-791.123291015625	98.58982849121092	-106.87971496582031	
